<?xml version="1.0" encoding="UTF-8" standalone="no"?>
<!DOCTYPE svg PUBLIC "-//W3C//DTD SVG 1.1//EN" "http://www.w3.org/Graphics/SVG/1.1/DTD/svg11.dtd">
<svg width="921.60" height="518.40" viewBox="0.00 0.00 1920.00 1080.00" xmlns="http://www.w3.org/2000/svg" xmlns:xlink="http://www.w3.org/1999/xlink">
<g stroke-linecap="round" id="body">
<path d="M740.69,113.28 C733.33,119.40 725.93,125.93 721.13,131.33 C714.75,138.69 708.22,147.73 706.84,150.16 C704.06,155.14 699.44,168.04 697.26,175.88 C695.26,183.27 693.27,195.40 692.76,202.37 C692.25,209.48 692.87,220.22 694.54,227.26 C695.52,231.31 697.60,237.41 699.23,240.96 C702.22,247.39 711.23,259.84 715.28,263.44 C717.70,265.56 724.02,269.85 727.80,271.69 C734.53,274.91 747.18,278.20 753.83,279.04 C760.90,279.91 775.46,280.30 783.27,279.61 C791.17,278.90 803.92,275.88 809.65,273.23 C813.14,271.60 823.46,265.55 830.79,260.11 C835.99,256.19 843.63,247.27 847.04,242.32 C850.25,237.56 855.73,225.52 858.50,217.25 C860.36,211.59 862.37,200.10 862.26,192.57 C862.07,182.66 860.93,172.42 859.49,166.19 C858.32,161.26 851.74,144.67 848.09,139.18 C844.52,133.88 832.65,121.89 826.09,116.77 C822.71,114.15 818.15,111.43 814.83,109.97 C809.19,107.55 797.52,105.14 791.70,105.13 C785.54,105.14 769.98,107.13 762.48,108.76 C749.89,111.52 732.36,119.13 728.05,121.16" fill="none" stroke="rgb(93, 105, 117)" stroke-width="7.00" stroke-opacity="1.00" stroke-linejoin="round"/>
<path d="M788.17,459.52 C783.17,461.04 779.06,462.71 777.15,463.76 C774.86,464.97 770.22,472.68 768.83,474.99 C766.54,478.89 760.70,495.93 759.29,502.08 C758.52,505.79 756.79,514.49 756.24,518.71 C755.64,523.92 755.48,534.10 756.07,537.50 C756.77,541.48 761.89,550.17 764.83,553.39 C766.52,555.22 773.67,560.70 777.83,563.09 C781.67,565.24 787.86,567.90 791.55,569.15 C800.42,571.89 815.68,575.75 824.77,577.03 C830.23,577.71 847.53,578.99 854.40,579.16 C861.47,579.22 876.13,578.14 884.12,577.11 C889.76,576.23 901.01,574.14 906.94,573.02 C915.27,571.33 926.23,568.25 932.33,566.03 C933.64,565.51 941.74,562.48 944.93,561.27 C950.75,559.07 965.39,549.86 968.38,548.01 C970.07,546.90 975.30,543.26 976.09,542.57 C977.65,541.20 981.09,532.60 981.75,529.84 C982.41,527.02 983.14,520.19 983.15,518.21 C983.13,514.40 979.93,498.10 976.72,491.16 C976.66,491.02 971.20,480.92 970.02,479.24 C968.44,477.00 963.84,472.56 959.78,469.57 C956.07,466.96 941.51,459.52 933.58,456.31 C931.96,455.68 924.78,452.81 920.75,451.16 C915.65,449.14 900.47,446.36 892.49,445.17 C886.96,444.47 866.97,444.24 856.15,445.14 C847.96,445.92 830.29,449.14 824.93,450.26 C818.51,451.69 802.23,455.74 795.66,457.46 C792.83,458.23 788.19,459.51 788.17,459.52 Z" fill="none" stroke="rgb(93, 105, 117)" stroke-width="10.00" stroke-opacity="1.00" stroke-linejoin="round"/>
<path d="M733.31,335.13 C733.37,339.65 735.09,349.23 735.70,353.07 C736.78,358.39 738.97,369.31 740.08,374.91 C740.98,379.22 742.79,387.75 743.71,391.97 C744.15,393.89 750.28,407.36 750.45,407.80 C751.16,409.75 755.89,420.13 757.93,424.41 C760.15,428.91 764.75,438.07 766.21,440.79 C769.74,447.23 772.61,451.40 776.29,456.22 C779.56,460.36 786.92,468.34 790.24,471.29 C791.46,472.35 798.56,479.12 803.30,481.47 C806.40,482.97 816.42,484.88 820.62,485.31 C822.97,485.50 828.83,485.81 834.76,485.47 C839.25,485.12 849.76,483.37 851.66,482.91 C855.14,482.01 863.78,479.74 868.93,478.37 C869.76,478.13 876.98,474.60 880.89,472.30 C882.66,471.23 885.29,469.63 886.15,469.10 C889.60,466.94 890.59,465.64 891.60,464.12 C894.73,459.26 898.90,451.00 900.18,447.93 C901.01,445.78 902.31,442.41 902.66,439.09 C902.85,436.87 904.17,424.86 904.12,420.97 C904.09,419.10 902.75,409.16 901.32,403.44 C900.26,399.47 897.47,388.54 896.17,383.61 C894.17,376.04 891.35,366.27 889.30,359.78 C886.62,351.94 884.69,347.38 882.46,338.98 C880.54,331.85 877.39,322.17 874.36,316.39 C871.76,311.55 862.36,300.31 857.45,295.13 C854.76,292.40 845.30,283.87 840.83,281.15 C835.94,278.26 826.74,272.87 822.42,270.36 C817.40,267.51 815.82,266.78 811.21,265.96 C806.09,264.82 793.63,263.69 789.65,263.51 C782.28,263.33 773.66,265.06 767.55,266.79 C762.30,268.42 756.46,270.24 755.87,270.42 C751.60,274.19 745.17,279.83 743.02,281.71 C741.62,282.93 741.65,283.91 740.72,285.97 C739.28,289.20 735.63,302.55 734.66,308.57 C733.75,314.76 733.26,328.02 733.28,332.78 C733.29,333.54 733.30,334.72 733.31,335.13 Z" fill="none" stroke="rgb(93, 105, 117)" stroke-width="10.00" stroke-opacity="1.00" stroke-linejoin="round"/>
</g>
<g stroke-linecap="round" id="left_arm">
<path d="M750.82,279.88 C750.82,279.88 750.86,280.16 750.86,280.16 C750.33,281.25 748.41,282.13 742.86,284.04 C730.23,288.51 715.24,295.55 712.75,296.41 C712.75,296.41 712.71,296.82 712.71,296.82" fill="none" stroke="rgb(93, 105, 117)" stroke-width="10.00" stroke-opacity="1.00" stroke-linejoin="round"/>
<path d="M710.77,298.67 C710.77,298.67 710.69,298.55 710.69,298.55 C709.53,299.88 708.15,306.42 707.29,316.09 C706.68,323.35 705.46,337.34 704.85,344.08 C704.15,350.94 702.68,364.74 701.91,371.67 C701.19,378.74 699.73,394.46 699.64,398.44 C699.30,406.12 698.10,423.93 697.95,426.24 C697.89,427.45 698.09,429.30 697.14,430.30" fill="none" stroke="rgb(93, 105, 117)" stroke-width="10.00" stroke-opacity="1.00" stroke-linejoin="round"/>
<path d="M732.52,335.14 C732.52,335.14 732.38,335.73 732.38,335.73 C731.70,339.17 731.26,353.57 731.19,359.24 C731.12,365.77 731.02,377.29 731.00,382.29 C731.00,382.58 730.76,395.03 730.67,399.68 C730.63,401.28 730.86,413.52 730.80,418.10 C730.65,423.69 730.24,435.28 730.00,437.32 C729.21,444.39 727.73,452.96 726.85,457.46 C726.64,458.50 725.99,459.20 725.43,459.57 C725.09,459.81 724.51,460.29 724.44,460.31 C724.30,460.35 722.84,460.07 722.32,460.63 C721.30,461.74 716.67,467.78 714.99,470.01 C713.83,471.54 709.89,474.78 707.24,478.24 C704.69,481.44 696.22,490.60 691.65,494.29 C687.31,497.75 679.69,503.82 676.41,506.44 C673.04,509.13 665.04,515.55 660.41,519.28" fill="none" stroke="rgb(93, 105, 117)" stroke-width="10.00" stroke-opacity="1.00" stroke-linejoin="round"/>
<path d="M706.56,426.13 C706.12,426.36 704.03,426.70 703.04,426.95 C702.72,427.04 702.30,427.22 701.92,427.41 C700.12,428.34 695.92,433.36 695.00,435.23 C693.71,437.89 693.13,442.02 692.96,445.96 C692.90,447.60 693.77,454.79 694.50,456.13 C696.08,459.00 699.44,462.61 702.18,463.65 C703.77,464.25 710.38,464.60 712.71,463.91 C715.18,463.15 720.08,460.09 722.30,458.20 C724.59,456.20 728.12,450.84 729.00,448.79 C730.29,445.75 731.73,440.22 731.14,437.28 C730.65,434.89 728.12,428.93 726.07,427.11 C724.83,426.02 719.04,424.46 716.52,424.33 C711.94,424.10 706.75,426.03 706.56,426.13 Z" fill="none" stroke="rgb(64, 64, 64)" stroke-width="10.00" stroke-opacity="0.80" stroke-linejoin="round"/>
<path d="M695.61,430.21 C694.31,430.91 680.18,453.87 669.68,468.24 C663.64,476.29 657.10,484.16 653.42,488.54 C648.71,494.25 641.10,502.17 641.11,502.22" fill="none" stroke="rgb(67, 71, 74)" stroke-width="7.00" stroke-opacity="0.91" stroke-linejoin="round"/>
<path d="M643.58,502.95 C642.49,503.02 640.74,503.92 638.51,506.17 C636.60,508.12 635.28,511.14 634.94,512.89 C634.65,514.60 635.82,517.97 637.33,519.94 C638.55,521.48 642.41,523.73 644.56,524.26 C646.42,524.70 651.16,524.64 652.70,524.03 C654.78,523.17 657.97,520.47 658.93,518.65 C660.12,516.26 661.28,511.29 661.19,508.62 C661.07,506.26 659.11,503.11 657.18,502.10 C653.03,500.08 644.73,501.53 643.43,501.98 C643.10,502.10 642.40,502.37 641.36,502.80" fill="none" stroke="rgb(67, 71, 74)" stroke-width="7.00" stroke-opacity="1.00" stroke-linejoin="round"/>
</g>
<g stroke-linecap="round" id="right_arm">
<path d="M827.36,269.57 C827.36,269.57 823.95,266.82 823.95,266.82 C825.32,267.12 828.37,267.79 830.04,268.16 C830.80,268.32 831.97,268.52 832.55,267.64 C833.01,266.92 848.15,265.85 853.14,265.38 C854.08,265.31 863.74,263.94 865.53,264.68 C865.80,264.80 874.45,272.01 874.52,272.08 C877.19,274.32 887.59,278.02 892.86,279.31 C898.48,280.61 904.42,281.97 914.98,285.06 C919.24,286.28 926.20,288.23 933.52,290.48 C940.40,292.50 953.96,294.25 956.62,293.73" fill="none" stroke="rgb(93, 105, 117)" stroke-width="10.00" stroke-opacity="1.00" stroke-linejoin="round"/>
<path d="M956.62,293.73 C962.05,292.67 975.17,290.31 978.21,290.55 C984.54,291.12 996.76,292.61 1002.82,293.51 C1008.96,294.54 1021.16,296.60 1027.22,297.63 C1033.26,298.51 1044.72,299.74 1051.24,300.23 C1054.63,300.44 1060.72,300.83 1063.40,301.01 C1067.09,301.28 1070.47,302.54 1070.94,303.07" fill="none" stroke="rgb(93, 105, 117)" stroke-width="10.00" stroke-opacity="1.00" stroke-linejoin="round"/>
<path d="M875.64,320.10 C877.04,319.87 881.45,320.91 884.85,321.90 C893.72,324.46 894.52,324.66 905.27,325.05 C913.85,325.48 923.76,325.48 928.77,325.71 C932.43,325.97 935.97,326.34 940.66,327.92 C946.02,329.62 953.64,331.25 954.35,331.40" fill="none" stroke="rgb(93, 105, 117)" stroke-width="10.00" stroke-opacity="1.00" stroke-linejoin="round"/>
<path d="M954.35,331.40 C957.45,332.09 963.11,333.86 967.06,334.39 C970.42,334.82 983.29,332.84 989.78,332.14 C995.84,331.44 1007.38,329.99 1012.88,329.25 C1018.93,328.39 1031.86,326.72 1036.08,326.62 C1041.35,326.58 1053.37,327.07 1059.10,327.35 C1060.52,327.41 1063.34,327.41 1064.37,327.45 C1065.88,327.52 1067.31,328.27 1068.97,328.27 C1070.65,328.27 1073.87,328.25 1074.81,327.88 C1076.75,327.01 1077.24,326.91 1077.61,326.90 C1077.67,326.90 1077.76,326.90 1077.86,326.90" fill="none" stroke="rgb(93, 105, 117)" stroke-width="10.00" stroke-opacity="1.00" stroke-linejoin="round"/>
<path d="M958.77,294.60 C958.57,294.60 957.00,294.64 954.22,295.46 C952.11,296.11 948.35,298.23 946.72,300.61 C944.77,303.26 943.41,305.69 942.88,308.64 C942.50,310.81 942.15,314.00 942.19,316.00 C942.24,318.51 943.87,322.78 945.11,324.12 C946.88,326.00 951.11,329.72 952.11,329.96 C954.94,330.58 963.46,328.68 967.64,327.30 C968.61,326.97 970.61,326.04 971.70,325.52 C972.82,324.98 975.02,320.03 975.59,317.94 C976.93,312.93 975.87,305.97 974.90,304.23 C974.20,302.99 969.80,298.12 967.83,296.90 C965.33,295.36 959.14,294.62 958.77,294.60 Z" fill="none" stroke="rgb(64, 64, 64)" stroke-width="10.00" stroke-opacity="0.80" stroke-linejoin="round"/>
<path d="M1073.13,300.72 C1073.13,300.72 1072.98,300.38 1072.98,300.38 C1071.08,300.84 1068.22,303.81 1066.49,306.52 C1065.13,308.69 1063.63,313.85 1063.57,316.57 C1063.54,318.79 1064.34,322.74 1065.14,324.04 C1066.12,325.60 1070.59,328.56 1073.33,328.96 C1076.01,329.30 1079.49,328.51 1081.40,326.82 C1083.28,325.09 1086.02,320.32 1086.51,318.41 C1086.93,316.71 1086.88,312.72 1086.26,310.61 C1085.48,308.12 1082.90,304.25 1079.97,302.33 C1076.33,300.03 1071.87,300.62 1071.04,300.88 C1070.81,300.95 1070.34,301.13 1069.62,301.41" fill="none" stroke="rgb(67, 71, 74)" stroke-width="7.00" stroke-opacity="0.91" stroke-linejoin="round"/>
</g>
<g stroke-linecap="round" id="right_leg">
<path d="M801.74,658.72 C801.08,658.71 798.92,658.87 797.96,659.03 C795.43,659.46 790.57,661.18 788.44,662.44 C786.24,663.75 782.66,666.90 781.38,668.67 C780.46,669.95 777.88,674.83 777.25,676.75 C776.57,678.83 775.91,683.24 776.11,686.88 C776.33,689.97 777.07,698.98 777.19,699.22 C779.34,703.23 783.41,705.81 789.98,708.95 C791.92,709.87 801.30,712.50 804.06,712.98 C806.25,713.36 810.85,711.13 813.80,709.18 C815.85,707.78 821.92,702.95 822.59,702.31 C824.89,700.09 827.84,696.21 828.77,693.88 C829.67,691.55 830.91,686.14 831.03,683.92 C831.15,681.32 830.07,675.83 829.07,673.55 C828.08,671.31 825.12,667.15 823.26,665.33 C821.14,663.27 817.12,660.61 815.48,660.35 C812.84,660.01 805.42,658.73 801.74,658.72 Z" fill="none" stroke="rgb(93, 105, 117)" stroke-width="10.00" stroke-opacity="1.00" stroke-linejoin="round"/>
<path d="M829.10,578.96 C826.92,583.20 806.10,618.38 798.68,631.89 C795.12,638.54 787.88,652.16 784.19,659.12 C780.06,667.02 778.24,671.97 778.23,674.50 C778.23,674.50 779.65,674.59 779.65,674.59 C779.65,674.59 781.25,672.58 781.25,672.58" fill="none" stroke="rgb(93, 105, 117)" stroke-width="10.00" stroke-opacity="1.00" stroke-linejoin="round"/>
<path d="M983.84,526.08 C983.84,526.08 983.99,523.31 983.99,523.31 C980.85,531.01 975.75,543.46 973.65,547.75 C970.59,553.97 963.70,562.37 957.24,568.53 C955.68,570.01 947.20,577.77 946.14,578.78 C943.60,581.24 931.78,597.31 929.48,600.19 C923.16,608.03 916.58,615.01 910.29,620.57 C906.27,624.08 895.36,633.10 893.36,634.50 C890.51,636.47 862.74,652.67 861.17,653.72 C860.09,654.46 836.46,674.18 830.13,679.76 C830.13,679.76 829.45,680.40 829.45,680.40" fill="none" stroke="rgb(64, 64, 64)" stroke-width="10.00" stroke-opacity="0.80" stroke-linejoin="round"/>
<path d="M874.06,648.69 C874.06,648.63 879.81,650.96 882.73,651.54 C887.43,652.45 923.02,653.63 937.21,654.24 C953.71,655.09 966.59,655.21 969.13,655.21 C969.55,655.21 969.97,655.21 970.39,655.21" fill="none" stroke="rgb(64, 64, 64)" stroke-width="10.00" stroke-opacity="0.80" stroke-linejoin="round"/>
<path d="M800.75,711.41 C800.75,711.41 798.95,710.84 798.95,710.84 C798.98,710.79 808.61,712.80 816.33,713.11 C822.69,713.30 834.32,712.56 840.54,711.68 C856.00,709.48 914.18,696.50 928.70,693.23 C937.72,691.53 951.72,689.64 953.54,689.56 C953.86,689.55 954.15,689.57 954.40,689.62" fill="none" stroke="rgb(64, 64, 64)" stroke-width="10.00" stroke-opacity="0.80" stroke-linejoin="round"/>
<path d="M966.54,652.76 C964.08,653.26 961.47,653.95 960.23,654.61 C957.85,655.88 953.31,660.94 952.12,662.70 C950.90,664.56 949.17,668.48 948.51,670.96 C947.85,673.53 947.52,678.05 947.70,680.14 C947.98,682.66 950.12,687.78 952.62,689.78 C955.06,691.70 959.47,692.97 962.55,693.26 C965.91,693.55 971.86,693.08 974.93,692.15 C977.17,691.44 983.05,688.58 984.92,687.41 C987.20,685.89 989.99,680.99 990.39,677.88 C990.65,675.34 990.15,670.76 989.41,668.47 C988.74,666.47 986.36,662.83 983.22,660.31 C980.51,658.17 972.02,654.71 968.00,654.05 C965.64,653.69 959.41,653.46 958.78,654.06 C958.62,654.23 958.36,654.69 958.01,655.44" fill="none" stroke="rgb(64, 64, 64)" stroke-width="10.00" stroke-opacity="0.80" stroke-linejoin="round"/>
</g>
<g stroke-linecap="round" id="left_leg">
<path d="M756.66,510.58 C756.66,510.58 756.84,510.39 756.84,510.39 C754.28,522.45 749.16,545.16 746.59,555.80 C743.87,566.02 738.24,586.27 735.10,596.50 C731.77,606.77 724.97,627.52 721.51,637.99 C718.15,648.29 711.69,668.67 708.59,678.76 C708.48,679.15 708.36,679.55 708.25,679.95" fill="none" stroke="rgb(93, 105, 117)" stroke-width="10.00" stroke-opacity="1.00" stroke-linejoin="round"/>
<path d="M708.25,679.95 C705.28,690.38 697.85,716.80 697.69,718.35 C697.67,718.56 697.55,720.03 697.52,720.94 C697.55,720.55 697.59,719.38 697.60,719.77 C697.72,727.31 695.78,751.65 692.83,776.49 C691.06,790.43 687.55,819.93 685.81,835.49 C684.64,848.88 683.22,872.33 683.10,894.87 C683.09,899.17 683.06,906.30 683.06,909.13" fill="none" stroke="rgb(93, 105, 117)" stroke-width="10.00" stroke-opacity="1.00" stroke-linejoin="round"/>
<path d="M715.12,667.70 C714.16,668.20 712.33,668.92 711.41,670.03 C709.54,672.36 706.99,681.88 706.39,686.94 C706.09,689.81 705.86,696.22 706.25,697.98 C706.82,700.53 709.74,706.45 711.66,709.18 C713.60,711.86 717.11,714.68 720.21,715.99 C721.92,716.70 727.39,718.05 729.39,718.31 C732.28,718.66 739.30,718.66 742.41,718.13 C744.18,717.81 744.97,717.61 745.29,718.08 C745.95,719.06 748.46,718.27 750.01,717.40 C753.82,715.23 759.26,710.15 762.40,704.82 C762.68,704.33 763.48,702.88 763.99,701.89 C764.81,700.29 765.68,699.19 765.64,697.51 C765.55,695.23 764.96,690.72 764.27,687.63 C763.35,683.64 762.30,681.29 761.38,679.39 C759.86,676.36 757.07,671.55 755.60,670.38 C754.94,669.86 752.69,668.47 751.61,668.25 C750.40,668.06 743.79,663.96 741.62,663.17 C739.07,662.29 733.56,661.08 730.44,661.51 C728.24,661.82 719.13,665.62 715.12,667.70 Z" fill="none" stroke="rgb(93, 105, 117)" stroke-width="10.00" stroke-opacity="1.00" stroke-linejoin="round"/>
<path d="M778.81,667.73 C778.81,667.73 778.89,662.91 778.89,662.91 C773.65,676.65 765.39,698.53 765.05,700.72 C764.79,702.55 764.98,704.43 765.61,704.92 C765.82,705.07 766.30,705.25 767.06,705.47" fill="none" stroke="rgb(93, 105, 117)" stroke-width="10.00" stroke-opacity="1.00" stroke-linejoin="round"/>
<path d="M765.52,710.15 C765.52,710.15 765.52,709.67 765.52,709.67 C765.26,710.53 756.69,748.35 752.07,764.95 C744.09,792.09 722.84,866.82 720.67,875.88 C715.65,898.14 712.87,914.04 712.35,921.43" fill="none" stroke="rgb(93, 105, 117)" stroke-width="10.00" stroke-opacity="1.00" stroke-linejoin="round"/>
<path d="M685.57,905.37 C683.03,907.45 680.88,910.14 679.74,912.14 C678.54,914.31 677.21,918.43 677.28,920.86 C677.41,923.89 678.74,927.95 680.12,930.37 C681.40,932.54 685.20,936.38 687.39,937.71 C688.21,938.19 691.62,939.02 694.35,939.10 C696.89,939.15 700.38,938.24 702.25,937.14 C703.93,936.11 707.36,933.10 708.62,931.57 C710.18,929.62 712.56,925.36 712.87,923.73 C713.17,921.82 712.64,919.06 711.09,916.11 C709.91,913.95 706.56,910.56 705.19,909.60 C703.54,908.47 699.83,906.67 697.87,906.03 C694.73,905.04 689.73,905.60 689.19,905.99 C689.01,906.13 688.74,906.45 688.39,906.96" fill="none" stroke="rgb(67, 71, 74)" stroke-width="7.00" stroke-opacity="1.00" stroke-linejoin="round"/>
</g>
</svg>
